<svg width="560" height="158" xmlns="http://www.w3.org/2000/svg" xmlns:xlink="http://www.w3.org/1999/xlink" overflow="hidden">
    <defs>
        <clipPath id="prefix__a">
            <path d="M339 398h657v334H339z" fill-rule="evenodd" clip-rule="evenodd"/>
        </clipPath>
        <clipPath id="prefix__b">
            <path d="M0 0h289v334H0z" fill-rule="evenodd" clip-rule="evenodd"/>
        </clipPath>
        <clipPath id="prefix__c">
            <path d="M0 0h514v198H0z" fill-rule="evenodd" clip-rule="evenodd"/>
        </clipPath>
    </defs>
    <g clip-path="url(#prefix__a)" transform="translate(-399 -458)">
        <path d="M404 586.5c0-10.77 8.73-19.5 19.5-19.5s19.5 8.73 19.5 19.5-8.73 19.5-19.5 19.5-19.5-8.73-19.5-19.5zM492 586.5c0-10.77 8.73-19.5 19.5-19.5s19.5 8.73 19.5 19.5-8.73 19.5-19.5 19.5-19.5-8.73-19.5-19.5zM483 488.5c0-15.74 12.536-28.5 28-28.5s28 12.76 28 28.5-12.536 28.5-28 28.5-28-12.76-28-28.5z" fill="#007E6F" fill-rule="evenodd"/>
        <path d="M413 535.5c0-36.727 29.997-66.5 67-66.5s67 29.773 67 66.5c0 36.727-29.997 66.5-67 66.5s-67-29.773-67-66.5z" stroke="#FFF" stroke-width="6" stroke-miterlimit="8" fill="#007E6F" fill-rule="evenodd"/>
        <g clip-path="url(#prefix__b)" transform="translate(339 398)">
            <use width="100%" height="100%" xlink:href="#prefix__img1"/>
        </g>
        <path d="M471.362 552.012v29.376c-1.122.306-2.882.612-5.279.918a56.139 56.139 0 01-7.114.459c-2.346 0-4.412-.179-6.197-.536-1.785-.357-3.264-.994-4.437-1.912-1.173-.918-2.065-2.193-2.677-3.825-.612-1.632-.918-3.774-.918-6.426v-72.063c0-2.142.586-3.8 1.76-4.973 1.172-1.173 2.779-2.116 4.819-2.83 3.468-1.224 7.497-2.117 12.087-2.678 4.59-.56 9.486-.841 14.688-.841 14.076 0 24.684 2.958 31.824 8.874 7.14 5.916 10.71 13.923 10.71 24.021 0 6.324-1.632 11.73-4.896 16.218-3.264 4.488-7.14 7.956-11.628 10.404a359.329 359.329 0 0010.863 14.076c3.57 4.386 6.375 8.364 8.415 11.934-1.02 3.57-2.882 6.298-5.585 8.185-2.703 1.887-5.737 2.831-9.103 2.831-2.244 0-4.182-.255-5.814-.765-1.632-.51-3.06-1.224-4.284-2.142-1.224-.918-2.346-2.04-3.366-3.366a44.934 44.934 0 01-2.907-4.284l-12.852-20.655zm9.639-20.349c3.876 0 6.936-.995 9.18-2.984 2.244-1.989 3.366-4.921 3.366-8.797 0-3.876-1.25-6.809-3.748-8.798-2.5-1.989-6.452-2.983-11.858-2.983-1.53 0-2.754.051-3.672.153-.918.102-1.938.255-3.06.459v22.95z" fill="#DDD"/>
        <g clip-path="url(#prefix__c)" transform="translate(483 474)">
            <use width="100%" height="100%" xlink:href="#prefix__img3"/>
        </g>
        <path d="M566.987 583.408c-3.461 0-6.673-.484-9.636-1.452-2.963-.968-5.544-2.42-7.744-4.356s-3.93-4.37-5.192-7.304c-1.261-2.933-1.892-6.365-1.892-10.296 0-3.872.63-7.201 1.892-9.988 1.261-2.787 2.919-5.075 4.972-6.864 2.053-1.79 4.4-3.11 7.04-3.96a26.24 26.24 0 018.096-1.276c3.11 0 5.94.47 8.492 1.408 2.552.939 4.752 2.23 6.6 3.872a17.234 17.234 0 014.312 5.896c1.027 2.288 1.54 4.781 1.54 7.48 0 1.995-.557 3.52-1.672 4.576-1.115 1.056-2.67 1.73-4.664 2.024l-21.736 3.256c.645 1.936 1.965 3.388 3.96 4.356 1.995.968 4.283 1.452 6.864 1.452 2.405 0 4.679-.308 6.82-.924 2.141-.616 3.887-1.335 5.236-2.156.939.587 1.73 1.408 2.376 2.464.645 1.056.968 2.17.968 3.344 0 2.64-1.232 4.605-3.696 5.896-1.877.997-3.99 1.672-6.336 2.024-2.347.352-4.547.528-6.6.528zm-2.464-34.584c-1.408 0-2.625.235-3.652.704-1.027.47-1.863 1.07-2.508 1.804a7.492 7.492 0 00-1.452 2.464c-.323.91-.513 1.833-.572 2.772l15.048-2.464c-.176-1.173-.821-2.347-1.936-3.52s-2.757-1.76-4.928-1.76zm52.293.88c-1.466 0-2.86.235-4.18.704-1.32.47-2.464 1.159-3.432 2.068-.968.91-1.745 2.039-2.332 3.388-.586 1.35-.88 2.933-.88 4.752 0 3.637 1.042 6.365 3.124 8.184 2.083 1.819 4.62 2.728 7.612 2.728 1.76 0 3.286-.205 4.576-.616a28.12 28.12 0 003.432-1.32c1.174.821 2.054 1.716 2.64 2.684.587.968.88 2.127.88 3.476 0 2.405-1.144 4.268-3.432 5.588-2.288 1.32-5.456 1.98-9.504 1.98-3.696 0-7.04-.543-10.032-1.628s-5.558-2.61-7.7-4.576c-2.141-1.965-3.798-4.327-4.972-7.084-1.173-2.757-1.76-5.808-1.76-9.152 0-3.872.631-7.26 1.892-10.164 1.262-2.904 2.978-5.295 5.148-7.172 2.171-1.877 4.679-3.285 7.524-4.224 2.846-.939 5.852-1.408 9.02-1.408 4.224 0 7.48.763 9.768 2.288 2.288 1.525 3.432 3.49 3.432 5.896a6.422 6.422 0 01-.792 3.124 10.894 10.894 0 01-1.848 2.508c-.997-.47-2.2-.924-3.608-1.364-1.408-.44-2.933-.66-4.576-.66zm19.064-10.472c0-2.992.514-5.559 1.54-7.7 1.027-2.141 2.42-3.901 4.18-5.28 1.76-1.379 3.828-2.39 6.204-3.036 2.376-.645 4.914-.968 7.612-.968 4.342 0 7.539.572 9.592 1.716 2.054 1.144 3.08 3.095 3.08 5.852 0 1.173-.249 2.23-.748 3.168-.498.939-1.041 1.643-1.628 2.112a40.24 40.24 0 00-3.476-.748c-1.202-.205-2.596-.308-4.18-.308-2.522 0-4.488.425-5.896 1.276-1.408.85-2.112 2.332-2.112 4.444v2.816h14.432c.352.645.69 1.452 1.012 2.42.323.968.484 2.039.484 3.212 0 2.053-.454 3.535-1.364 4.444-.909.91-2.126 1.364-3.652 1.364h-10.12v27.896c-.586.176-1.51.352-2.772.528a28.306 28.306 0 01-3.916.264c-1.29 0-2.449-.088-3.476-.264-1.026-.176-1.892-.528-2.596-1.056-.704-.528-1.246-1.247-1.628-2.156-.381-.91-.572-2.097-.572-3.564zm52.882 42.68c-.646.117-1.599.279-2.86.484a23.798 23.798 0 01-3.828.308c-1.291 0-2.45-.088-3.476-.264-1.027-.176-1.892-.528-2.596-1.056-.704-.528-1.247-1.247-1.628-2.156-.382-.91-.572-2.097-.572-3.564v-51.04c.645-.117 1.598-.279 2.86-.484a23.783 23.783 0 013.828-.308c1.29 0 2.449.088 3.476.264 1.026.176 1.892.528 2.596 1.056.704.528 1.246 1.247 1.628 2.156.381.91.572 2.097.572 3.564zm9.442-42.064c.587-.176 1.511-.352 2.772-.528a28.327 28.327 0 013.916-.264c1.291 0 2.45.088 3.476.264 1.027.176 1.892.528 2.596 1.056.704.528 1.247 1.247 1.628 2.156.382.91.572 2.097.572 3.564v18.92c0 2.405.587 4.121 1.76 5.148 1.174 1.027 2.875 1.54 5.104 1.54 1.35 0 2.45-.117 3.3-.352.851-.235 1.511-.47 1.98-.704v-30.8c.587-.176 1.511-.352 2.772-.528a28.327 28.327 0 013.916-.264c1.291 0 2.45.088 3.476.264 1.027.176 1.892.528 2.596 1.056.704.528 1.247 1.247 1.628 2.156.382.91.572 2.097.572 3.564v26.752c0 2.933-1.232 5.133-3.696 6.6-2.053 1.29-4.502 2.273-7.348 2.948-2.845.675-5.94 1.012-9.284 1.012-3.168 0-6.086-.352-8.756-1.056-2.669-.704-4.972-1.79-6.908-3.256-1.936-1.467-3.432-3.359-4.488-5.676-1.056-2.317-1.584-5.119-1.584-8.404zm73.783 43.56c-3.461 0-6.673-.484-9.636-1.452-2.963-.968-5.544-2.42-7.744-4.356s-3.931-4.37-5.192-7.304c-1.261-2.933-1.892-6.365-1.892-10.296 0-3.872.631-7.201 1.892-9.988s2.919-5.075 4.972-6.864c2.053-1.79 4.4-3.11 7.04-3.96a26.241 26.241 0 018.096-1.276c3.109 0 5.94.47 8.492 1.408 2.552.939 4.752 2.23 6.6 3.872a17.237 17.237 0 014.312 5.896c1.027 2.288 1.54 4.781 1.54 7.48 0 1.995-.557 3.52-1.672 4.576-1.115 1.056-2.669 1.73-4.664 2.024l-21.736 3.256c.645 1.936 1.965 3.388 3.96 4.356 1.995.968 4.283 1.452 6.864 1.452 2.405 0 4.679-.308 6.82-.924 2.141-.616 3.887-1.335 5.236-2.156.939.587 1.731 1.408 2.376 2.464.645 1.056.968 2.17.968 3.344 0 2.64-1.232 4.605-3.696 5.896-1.877.997-3.989 1.672-6.336 2.024-2.347.352-4.547.528-6.6.528zm-2.464-34.584c-1.408 0-2.625.235-3.652.704-1.027.47-1.863 1.07-2.508 1.804a7.503 7.503 0 00-1.452 2.464c-.323.91-.513 1.833-.572 2.772l15.048-2.464c-.176-1.173-.821-2.347-1.936-3.52s-2.757-1.76-4.928-1.76zm55.285 6.072c0-1.819-.513-3.153-1.54-4.004-1.026-.85-2.42-1.276-4.18-1.276-1.173 0-2.332.147-3.476.44-1.144.293-2.126.733-2.948 1.32v30.536c-.586.176-1.51.352-2.772.528a28.306 28.306 0 01-3.916.264c-1.29 0-2.449-.088-3.476-.264-1.026-.176-1.892-.528-2.596-1.056-.704-.528-1.246-1.247-1.628-2.156-.381-.91-.572-2.097-.572-3.564v-26.4c0-1.584.338-2.875 1.012-3.872.675-.997 1.599-1.907 2.772-2.728 1.995-1.408 4.503-2.552 7.524-3.432 3.022-.88 6.38-1.32 10.076-1.32 6.63 0 11.734 1.452 15.312 4.356 3.579 2.904 5.368 6.937 5.368 12.1v27.544c-.586.176-1.51.352-2.772.528a28.306 28.306 0 01-3.916.264c-1.29 0-2.449-.088-3.476-.264-1.026-.176-1.892-.528-2.596-1.056-.704-.528-1.246-1.247-1.628-2.156-.381-.91-.572-2.097-.572-3.564zm48.342-5.192c-1.467 0-2.86.235-4.18.704-1.32.47-2.464 1.159-3.432 2.068-.968.91-1.746 2.039-2.332 3.388-.587 1.35-.88 2.933-.88 4.752 0 3.637 1.041 6.365 3.124 8.184 2.082 1.819 4.62 2.728 7.612 2.728 1.76 0 3.285-.205 4.576-.616a28.21 28.21 0 003.432-1.32c1.173.821 2.053 1.716 2.64 2.684.586.968.88 2.127.88 3.476 0 2.405-1.144 4.268-3.432 5.588-2.288 1.32-5.456 1.98-9.504 1.98-3.696 0-7.04-.543-10.032-1.628s-5.559-2.61-7.7-4.576c-2.142-1.965-3.799-4.327-4.972-7.084-1.174-2.757-1.76-5.808-1.76-9.152 0-3.872.63-7.26 1.892-10.164 1.261-2.904 2.977-5.295 5.148-7.172 2.17-1.877 4.678-3.285 7.524-4.224 2.845-.939 5.852-1.408 9.02-1.408 4.224 0 7.48.763 9.768 2.288 2.288 1.525 3.432 3.49 3.432 5.896a6.422 6.422 0 01-.792 3.124 10.894 10.894 0 01-1.848 2.508c-.998-.47-2.2-.924-3.608-1.364-1.408-.44-2.934-.66-4.576-.66zm41.504 33.704c-3.462 0-6.674-.484-9.636-1.452-2.963-.968-5.544-2.42-7.744-4.356s-3.931-4.37-5.192-7.304c-1.262-2.933-1.892-6.365-1.892-10.296 0-3.872.63-7.201 1.892-9.988 1.261-2.787 2.918-5.075 4.972-6.864 2.053-1.79 4.4-3.11 7.04-3.96a26.237 26.237 0 018.096-1.276c3.109 0 5.94.47 8.492 1.408 2.552.939 4.752 2.23 6.6 3.872a17.237 17.237 0 014.312 5.896c1.026 2.288 1.54 4.781 1.54 7.48 0 1.995-.558 3.52-1.672 4.576-1.115 1.056-2.67 1.73-4.664 2.024l-21.736 3.256c.645 1.936 1.965 3.388 3.96 4.356 1.994.968 4.282 1.452 6.864 1.452 2.405 0 4.678-.308 6.82-.924 2.141-.616 3.886-1.335 5.236-2.156.938.587 1.73 1.408 2.376 2.464.645 1.056.968 2.17.968 3.344 0 2.64-1.232 4.605-3.696 5.896-1.878.997-3.99 1.672-6.336 2.024-2.347.352-4.547.528-6.6.528zm-2.464-34.584c-1.408 0-2.626.235-3.652.704-1.027.47-1.863 1.07-2.508 1.804a7.468 7.468 0 00-1.452 2.464c-.323.91-.514 1.833-.572 2.772l15.048-2.464c-.176-1.173-.822-2.347-1.936-3.52-1.115-1.173-2.758-1.76-4.928-1.76z" fill="#444"/>
    </g>
</svg>
