<svg width="158" height="158" overflow="hidden" xmlns="http://www.w3.org/2000/svg" xmlns:xlink="http://www.w3.org/1999/xlink">
    <defs>
        <clipPath id="clip0">
            <path d="M344 198 633 198 633 532 344 532Z" fill-rule="evenodd" clip-rule="evenodd"/>
        </clipPath>
        <clipPath id="clip2">
            <path d="M0 0 290 0 290 334 0 334Z" fill-rule="evenodd" clip-rule="evenodd"/>
        </clipPath>
    </defs>
    <g clip-path="url(#clip0)" transform="translate(-405 -260)" >
        <path d="M409 390.5C409 379.73 417.73 371 428.5 371 439.27 371 448 379.73 448 390.5 448 401.27 439.27 410 428.5 410 417.73 410 409 401.27 409 390.5Z" fill="#007E6F" fill-rule="evenodd"/>
        <path d="M497 390.5C497 379.73 505.73 371 516.5 371 527.27 371 536 379.73 536 390.5 536 401.27 527.27 410 516.5 410 505.73 410 497 401.27 497 390.5Z" fill="#007E6F" fill-rule="evenodd"/>
        <path d="M488 292C488 276.536 500.536 264 516 264 531.464 264 544 276.536 544 292 544 307.464 531.464 320 516 320 500.536 320 488 307.464 488 292Z" fill="#007E6F" fill-rule="evenodd"/>
        <path d="M418 339C418 301.997 447.997 272 485 272 522.003 272 552 301.997 552 339 552 376.003 522.003 406 485 406 447.997 406 418 376.003 418 339Z" stroke="#000000" stroke-width="6" stroke-miterlimit="8" fill="#007E6F" fill-rule="evenodd"/>
        <g clip-path="url(#clip2)" transform="translate(343 198)">
            <use width="100%" height="100%" xlink:href="#img1"/>
        </g>
        <path d="M36.567-29.988 36.567-0.612C35.445-0.306 33.6855 7.45058e-09 31.2885 0.306 28.8915 0.612 26.52 0.765 24.174 0.765 21.828 0.765 19.7625 0.5865 17.9775 0.2295 16.1925-0.1275 14.7135-0.765 13.5405-1.683 12.3675-2.601 11.475-3.876 10.863-5.508 10.251-7.14 9.945-9.282 9.945-11.934L9.945-83.997C9.945-86.139 10.5315-87.7965 11.7045-88.9695 12.8775-90.1425 14.484-91.086 16.524-91.8 19.992-93.024 24.021-93.9165 28.611-94.4775 33.201-95.0385 38.097-95.319 43.299-95.319 57.375-95.319 67.983-92.361 75.123-86.445 82.263-80.529 85.833-72.522 85.833-62.424 85.833-56.1 84.201-50.694 80.937-46.206 77.673-41.718 73.797-38.25 69.309-35.802 72.981-30.804 76.602-26.112 80.172-21.726 83.742-17.34 86.547-13.362 88.587-9.792 87.567-6.222 85.7055-3.4935 83.0025-1.6065 80.2995 0.2805 77.265 1.224 73.899 1.224 71.655 1.224 69.717 0.969 68.085 0.459 66.453-0.051 65.025-0.765 63.801-1.683 62.577-2.601 61.455-3.723 60.435-5.049 59.415-6.375 58.446-7.803 57.528-9.333L44.676-29.988ZM46.206-50.337C50.082-50.337 53.142-51.3315 55.386-53.3205 57.63-55.3095 58.752-58.242 58.752-62.118 58.752-65.994 57.5025-68.9265 55.0035-70.9155 52.5045-72.9045 48.552-73.899 43.146-73.899 41.616-73.899 40.392-73.848 39.474-73.746 38.556-73.644 37.536-73.491 36.414-73.287L36.414-50.337Z" fill="#F2F2F2" transform="translate(439.641 382)"/>
    </g>
</svg>
